<svg version="1.1" viewBox="0.0 0.0 669.1706036745406 594.8188976377953" fill="none" stroke="none" stroke-linecap="square" stroke-miterlimit="10" xmlns:xlink="http://www.w3.org/1999/xlink" xmlns="http://www.w3.org/2000/svg"><clipPath id="p.0"><path d="m0 0l669.1706 0l0 594.8189l-669.1706 0l0 -594.8189z" clip-rule="nonzero"/></clipPath><g clip-path="url(#p.0)"><path fill="#000000" fill-opacity="0.0" d="m0 0l669.1706 0l0 594.8189l-669.1706 0z" fill-rule="evenodd"/><path fill="#cc0000" d="m0 297.25986l148.62993 -297.2597l372.0 0l148.62988 297.2597l-148.62988 297.25967l-372.0 0z" fill-rule="evenodd"/><path fill="#ffffff" d="m225.8084 430.11285l111.76378 -301.07086l111.763794 301.07086z" fill-rule="evenodd"/><path fill="#ffffff" d="m259.29135 165.43307l0 0c0 -43.043427 33.730225 -77.93701 75.33856 -77.93701l0 0c19.981049 0 39.143707 8.211197 53.27243 22.827217c14.128723 14.616028 22.066162 34.439613 22.066162 55.109795l0 0c0 43.04341 -33.730225 77.937 -75.33859 77.937l0 0c-41.608337 0 -75.33856 -34.893585 -75.33856 -77.937z" fill-rule="evenodd"/><path fill="#ffffff" d="m175.4462 430.12073l324.25195 0l0 53.66931l-324.25195 0z" fill-rule="evenodd"/></g></svg>